<svg version="1.1"
      xmlns="http://www.w3.org/2000/svg"
      xmlns:xlink="http://www.w3.org/1999/xlink"  id="snapshot-89231" width="250" height="250" viewBox="0 0 250 250"><desc>This image was made on Patterninja.com</desc><defs>
<!-- image 57991 -->
<g id="transformed-57991" data-image="57991" transform="translate(-162.8649747490233, -162.86497474902325) rotate(341, 162.8649747490233, 162.86497474902325)"><g><svg version="1.1" width="325.7299494980466px" height="325.7299494980465px" viewBox="0 0 325.7299494980466 325.7299494980465"><g id="original-57991"><svg xmlns="http://www.w3.org/2000/svg" viewBox="1 1 30 30" xmlns:xlink="http://www.w3.org/1999/xlink" version="1.1" preserveAspectRatio="xMidYMid meet">
  <path d="M28 1H6C4.3 1 3 2.3 3 4v24c0 1.6 1.3 3 3 3h22c.5 0 1-.5 1-1V2c0-.5-.5-1-1-1zM15 12H8c-.5 0-1-.5-1-1s.5-1 1-1h7c.5 0 1 .5 1 1s-.5 1-1 1zm2-4H8c-.5 0-1-.5-1-1s.5-1 1-1h9c.5 0 1 .5 1 1s-.5 1-1 1z" fill="rgba(236, 128, 8, 1)" stroke="none"/>
  <path d="M5 4h15v15H5z" fill="rgba(236, 128, 8, 1)" stroke="none"/>
  <path d="M28 1h-4c-.5 0-1 .5-1 1v23H5.4c-.1 0-.2 0-.3.1C3.9 25.5 3 26.7 3 28c0 1.6 1.3 3 3 3h22c.5 0 1-.5 1-1V2c0-.5-.5-1-1-1z" fill="rgba(253, 171, 8, 1)" stroke="none"/>
  <path stroke-width="1.5" d="M16.633 12.672c.57-.669.927-1.524.927-2.472a3.844 3.844 0 0 0-3.84-3.84H9.88a.96.96 0 0 0-.96.96v11.52c0 .53.43.96.96.96h4.8a3.844 3.844 0 0 0 3.84-3.84c0-1.401-.762-2.616-1.887-3.288zM10.84 8.28h2.88c1.059 0 1.92.861 1.92 1.92s-.861 1.92-1.92 1.92h-2.88V8.28zm3.84 9.6h-3.84v-3.84h3.84c1.059 0 1.92.861 1.92 1.92s-.861 1.92-1.92 1.92z" fill="rgba(165, 89, 5, 1)" stroke="rgba(165, 89, 5, 1)"/>
</svg>
</g></svg></g></g>
<!-- /image 57991 -->
</defs><rect x="0" y="0" width="250" height="250" fill="rgba(255, 255, 255, 0)"></rect><use xlink:href="#transformed-57991" transform="translate(-250, -250)"></use><use xlink:href="#transformed-57991" transform="translate(0, -250)"></use><use xlink:href="#transformed-57991" transform="translate(250, -250)"></use><use xlink:href="#transformed-57991" transform="translate(-250, 0)"></use><use xlink:href="#transformed-57991" transform="translate(0, 0)"></use><use xlink:href="#transformed-57991" transform="translate(250, 0)"></use><use xlink:href="#transformed-57991" transform="translate(-250, 250)"></use><use xlink:href="#transformed-57991" transform="translate(0, 250)"></use><use xlink:href="#transformed-57991" transform="translate(250, 250)"></use></svg>