<svg viewBox="1 1 30 30" xmlns="http://www.w3.org/2000/svg">
    <path d="M28,1H6C4.3,1,3,2.3,3,4v24c0,1.6,1.3,3,3,3h22c0.5,0,1-0.5,1-1V2C29,1.5,28.5,1,28,1z M15,12H8   c-0.5,0-1-0.5-1-1s0.5-1,1-1h7c0.5,0,1,0.5,1,1S15.5,12,15,12z M17,8H8C7.5,8,7,7.5,7,7s0.5-1,1-1h9c0.5,0,1,0.5,1,1S17.5,8,17,8z"
          fill="#EC8008"/>
    <rect x="5" y="4" width="15" height="15" fill="#EC8008" />
    <path d="M28,1h-4c-0.5,0-1,0.5-1,1v23h-7H6c-0.1,0-0.2,0-0.3,0c-0.1,0-0.2,0-0.3,0c-0.1,0-0.2,0-0.3,0.1   C3.9,25.5,3,26.7,3,28c0,1.6,1.3,3,3,3h10h12c0.5,0,1-0.5,1-1V2C29,1.5,28.5,1,28,1z"
          fill="#FDAB08"/>
    <g transform="matrix(0.03 0 0 0.03 13.72 13.08)"  >
        <path style="stroke: #a55905; stroke-width: 50; fill: #a55905" transform=" translate(-160, -256)" d="M 257.1 242.4 C 276.1 220.1 288 191.6 288 160 c 0 -70.58 -57.42 -128 -128 -128 H 32 c -17.67 0 -32 14.33 -32 32 v 384 c 0 17.67 14.33 32 32 32 l 160 -0.0049 c 70.58 0 128 -57.42 128 -128 C 320 305.3 294.6 264.8 257.1 242.4 z M 64 96.01 h 96 c 35.3 0 64 28.7 64 64 s -28.7 64 -64 64 H 64 V 96.01 z M 192 416 H 64 v -128 h 128 c 35.3 0 64 28.7 64 64 S 227.3 416 192 416 z" />
    </g>
</svg>
