<svg viewBox="1 1 30 30" xmlns="http://www.w3.org/2000/svg">
    <path fill="#fdab08" d="M 26,1 H 6 C 4.3,1 3,2.3 3,4 v 24 h 22.94809 z" />
    <path fill="#ec8008" d="M 26,1 C 24.585786,1 23,2.3478898 23,4 V 25 H 16 6 c -1.6962997,0 -3,1.32162 -3,3 0,1.6 1.3,3 3,3 h 10 10 c 1.639604,0 3,-1.330406 3,-3 V 4 C 29,2.2666516 27.414214,1 26,1 Z" />
    <path fill="#a55905" d="M 9.8808594,5.609375 C 8.8942022,5.5848124 8.0611659,6.5340814 8.1699219,7.5064434 c 0.0015,3.8068646 -0.003,7.6138076 0.00225,11.4206236 0.027229,0.97111 0.9800654,1.739019 1.9320411,1.623714 1.642326,-0.008 3.285468,0.01667 4.927245,-0.01346 2.192324,-0.129334 4.095547,-2.034571 4.224619,-4.226548 0.123015,-1.427923 -0.494055,-2.883513 -1.584205,-3.808817 1.073134,-1.725895 0.75085,-4.1384712 -0.709687,-5.5442189 -0.950554,-0.9809659 -2.340122,-1.4333468 -3.688199,-1.3483591 -1.131043,0 -2.262086,0 -3.3931293,0 z m 1.7089846,3.4218751 c 0.789133,0.013418 1.581707,-0.028248 2.368463,0.023508 0.888718,0.13485 1.250298,1.3732449 0.592038,1.9760559 -0.500392,0.501275 -1.240087,0.297455 -1.871975,0.34028 -0.362842,0 -0.725684,0 -1.088526,0 0,-0.779948 0,-1.5598961 0,-2.3398439 z m 0,5.7578129 c 1.070121,0.004 2.140635,-0.0079 3.210508,0.006 0.901804,0.04523 1.383637,1.246753 0.784156,1.9127 -0.457516,0.580842 -1.233056,0.389819 -1.872701,0.423104 -0.707321,0 -1.414642,0 -2.121963,0 0,-0.780599 0,-1.561197 0,-2.341796 z" />
</svg>
